<svg version="1.2" baseProfile="tiny-ps" xmlns="http://www.w3.org/2000/svg" viewBox="0 0 19 19" width="19" height="19">
	<title>search</title>
	<style>
		tspan { white-space:pre }
		.shp0 { fill: #025af5 } 
	</style>
	<g id="search">
		<path id="icon" class="shp0" d="M18.76 17.65L14.05 12.93C16.81 9.54 16.31 4.56 12.93 1.79C9.55 -0.98 4.57 -0.48 1.8 2.91C-0.96 6.29 -0.46 11.28 2.92 14.05C5.83 16.43 10.02 16.43 12.93 14.05L17.65 18.76C17.96 19.07 18.46 19.06 18.76 18.74C19.06 18.44 19.06 17.95 18.76 17.65ZM7.94 14.25C4.45 14.25 1.62 11.42 1.62 7.93C1.62 4.44 4.45 1.61 7.94 1.61C11.43 1.61 14.26 4.44 14.26 7.93C14.25 11.42 11.43 14.25 7.94 14.25Z" />
	</g>
</svg>