<svg version="1.2" baseProfile="tiny-ps" xmlns="http://www.w3.org/2000/svg" viewBox="0 0 21 21" width="21" height="21">
	<title>blog</title>
	<style>
		tspan { white-space:pre }
		.shp0 { fill: #929292 } 
	</style>
	<g id="blog">
		<g id="1">
			<g id="time">
				<path id="icon" class="shp0" d="M10.87 0.83C5.39 0.83 0.95 5.28 0.95 10.76C0.95 16.24 5.39 20.68 10.87 20.68C16.35 20.68 20.79 16.24 20.79 10.76C20.78 5.28 16.34 0.84 10.87 0.83ZM10.87 19.02C6.3 19.02 2.6 15.32 2.6 10.76C2.6 6.19 6.3 2.49 10.87 2.49C15.43 2.49 19.13 6.19 19.13 10.76C19.13 15.32 15.43 19.02 10.87 19.02ZM10.87 5.8C10.41 5.8 10.04 6.17 10.04 6.62L10.04 10.2L7.26 11.94C6.87 12.19 6.75 12.7 6.99 13.09C7.23 13.47 7.74 13.59 8.13 13.35L11.31 11.36C11.55 11.21 11.7 10.94 11.69 10.66L11.69 6.62C11.69 6.17 11.32 5.8 10.87 5.8Z" />
			</g>
		</g>
	</g>
</svg>