<svg version="1.2" baseProfile="tiny-ps" xmlns="http://www.w3.org/2000/svg" viewBox="0 0 16 21" width="16" height="21">
	<title>lasted</title>
	<style>
		tspan { white-space:pre }
		.shp0 { fill: #ffffff } 
	</style>
	<g id="lasted">
		<g id="profile">
			<path id="icon" class="shp0" d="M8.17 10.76C10.83 10.76 12.98 8.54 12.98 5.8C12.98 3.06 10.83 0.83 8.17 0.83C5.52 0.83 3.37 3.06 3.37 5.8C3.37 8.53 5.52 10.75 8.17 10.76ZM8.17 2.49C9.94 2.49 11.38 3.97 11.38 5.8C11.38 7.62 9.94 9.1 8.17 9.1C6.4 9.1 4.97 7.62 4.97 5.8C4.97 3.97 6.4 2.49 8.17 2.49ZM8.17 12.41C4.19 12.41 0.97 15.74 0.96 19.85C0.96 20.31 1.32 20.68 1.76 20.68C2.21 20.68 2.56 20.31 2.56 19.85C2.56 16.65 5.08 14.06 8.17 14.06C11.27 14.06 13.78 16.65 13.78 19.85C13.78 20.31 14.14 20.68 14.59 20.68C15.03 20.68 15.39 20.31 15.39 19.85C15.38 15.74 12.16 12.41 8.17 12.41Z" />
		</g>
	</g>
</svg>